<?xml version="1.0" encoding="utf-8"?>
<!-- Generator: Adobe Illustrator 26.0.1, SVG Export Plug-In . SVG Version: 6.00 Build 0)  -->
<svg version="1.1" id="Layer_1" xmlns="http://www.w3.org/2000/svg" xmlns:xlink="http://www.w3.org/1999/xlink" x="0px" y="0px"
	 viewBox="0 0 208.07 60" style="enable-background:new 0 0 208.07 60;" xml:space="preserve">
<style type="text/css">
	.st0{fill:#82868A;}
	.st1{fill:url(#SVGID_1_);}
	.st2{fill:url(#SVGID_00000158002972499030308630000006326553577771539349_);}
	.st3{fill:url(#SVGID_00000052077169852640991530000017054128974907288481_);}
	.st4{fill:url(#SVGID_00000067918627339281007450000009833580816173112499_);}
	.st5{fill:url(#SVGID_00000006691076827846239490000011717771482887826606_);}
	.st6{fill:url(#SVGID_00000059311619604987279710000001856824543549028524_);}
	.st7{fill:url(#SVGID_00000040534029504215396480000002472129875722564287_);}
	.st8{fill:url(#SVGID_00000115515918177273694220000006410658632383938195_);}
</style>
<g>
	<g>
		<path class="st0" d="M63.61,48.48v-2.16h7.06c0.56,0,0.81-0.15,0.81-0.59V45.4c0-0.44-0.25-0.62-0.79-0.62H66.4
			c-2.19,0-2.78-0.77-2.78-2.43v-0.52c0-1.96,0.82-2.68,2.78-2.68h7.43v2.16h-7.14c-0.48,0-0.71,0.16-0.71,0.66v0.21
			c0,0.44,0.21,0.62,0.71,0.62h4.19c2.16,0,2.95,0.68,2.95,2.41v0.79c0,1.78-0.79,2.49-2.95,2.49H63.61z"/>
		<path class="st0" d="M78.72,48.48c-2.8,0-3.62-0.85-3.62-3.2v-2.93c0-2.35,0.82-3.2,3.62-3.2h6.62v2.15h-6.62
			c-0.82,0-1.07,0.29-1.07,1.04v0.48h7.63v1.98h-7.63v0.49c0,0.79,0.22,1.03,1.07,1.03h6.62v2.16H78.72z"/>
		<path class="st0" d="M90.75,48.48c-2.8,0-3.62-0.85-3.62-3.2v-2.93c0-2.35,0.82-3.2,3.62-3.2h6.58v2.2h-6.4
			c-0.97,0-1.24,0.3-1.24,1.18v2.57c0,0.89,0.27,1.18,1.26,1.18h6.39v2.2H90.75z"/>
		<path class="st0" d="M102.2,48.48c-2.8,0-3.62-0.85-3.62-3.2v-6.13h2.58v5.96c0,0.88,0.33,1.16,1.29,1.16h3.1
			c0.96,0,1.29-0.29,1.29-1.18v-5.95h2.56v6.13c0,2.35-0.82,3.2-3.64,3.2H102.2z"/>
		<path class="st0" d="M118.78,48.48l-4.77-3.39v3.39h-2.56v-9.33h7.48c2.71,0,3.69,0.66,3.69,2.82v0.7c0,2.2-1.16,2.72-3.73,2.72
			h-0.82l4.68,3.09H118.78z M120.07,42.19c0-0.78-0.38-0.89-1.39-0.89h-4.66v2.22h4.66c1.01,0,1.39-0.11,1.39-0.89V42.19z"/>
		<path class="st0" d="M124.6,48.48v-9.33h2.57v9.33H124.6z"/>
		<path class="st0" d="M132.57,48.48v-7.13h-3.76v-2.2h10.09v2.2h-3.76v7.13H132.57z"/>
		<path class="st0" d="M140.54,48.48v-9.33h2.57v9.33H140.54z"/>
		<path class="st0" d="M148.25,48.48c-2.8,0-3.62-0.85-3.62-3.2v-2.93c0-2.35,0.82-3.2,3.62-3.2h6.62v2.15h-6.62
			c-0.82,0-1.07,0.29-1.07,1.04v0.48h7.63v1.98h-7.63v0.49c0,0.79,0.22,1.03,1.07,1.03h6.62v2.16H148.25z"/>
		<path class="st0" d="M156.46,48.48v-2.16h7.06c0.56,0,0.81-0.15,0.81-0.59V45.4c0-0.44-0.25-0.62-0.79-0.62h-4.28
			c-2.19,0-2.78-0.77-2.78-2.43v-0.52c0-1.96,0.82-2.68,2.78-2.68h7.43v2.16h-7.14c-0.48,0-0.71,0.16-0.71,0.66v0.21
			c0,0.44,0.2,0.62,0.71,0.62h4.19c2.16,0,2.95,0.68,2.95,2.41v0.79c0,1.78-0.79,2.49-2.95,2.49H156.46z"/>
		<path class="st0" d="M176.93,48.48c-2.8,0-3.62-0.85-3.62-3.2v-6.13h2.56v5.95c0,0.85,0.3,1.18,1.29,1.18h5.59v2.2H176.93z"/>
		<path class="st0" d="M184.94,48.48v-7.13h-3.76v-2.2h10.09v2.2h-3.76v7.13H184.94z"/>
		<path class="st0" d="M192.89,48.48v-9.33h7.52c2.82,0,3.64,0.85,3.64,3.2v2.93c0,2.35-0.82,3.2-3.64,3.2H192.89z M201.5,42.53
			c0-0.88-0.3-1.18-1.24-1.18h-4.79v4.92h4.79c0.89,0,1.24-0.27,1.24-1.16V42.53z"/>
		<path class="st0" d="M206.3,48.34c-0.53,0-0.71-0.16-0.71-0.57v-0.9c0-0.41,0.18-0.57,0.71-0.57h0.7c0.54,0,0.71,0.17,0.71,0.57
			v0.9c0,0.42-0.17,0.57-0.71,0.57H206.3z"/>
	</g>
	<linearGradient id="SVGID_1_" gradientUnits="userSpaceOnUse" x1="66.5495" y1="23.3099" x2="202.8318" y2="23.3099">
		<stop  offset="0" style="stop-color:#802F33"/>
		<stop  offset="1" style="stop-color:#EE3E45"/>
	</linearGradient>
	<path class="st1" d="M78.16,22.87l12.25-11.85h-8.69L70.34,22.7V11.03h-6.73v24.56h6.73V23.63l11.53,11.96h8.83L78.16,22.87z"/>
	
		<linearGradient id="SVGID_00000048465941985944335710000004763425493064843691_" gradientUnits="userSpaceOnUse" x1="66.5517" y1="22.985" x2="202.8333" y2="22.985">
		<stop  offset="0" style="stop-color:#802F33"/>
		<stop  offset="1" style="stop-color:#EE3E45"/>
	</linearGradient>
	<path style="fill:url(#SVGID_00000048465941985944335710000004763425493064843691_);" d="M114.79,13.3
		c-1.08-1.74-2.3-2.92-5.04-2.92s-4,1.18-5.04,2.92L91.02,35.59h7.63l3.18-5.22h15.6l3.24,5.22h7.71L114.79,13.3z M104.78,25.29
		c2.56-4.04,3.85-6.38,4.86-8.25c0.97,1.88,2.3,4.21,4.83,8.25H104.78z"/>
	
		<linearGradient id="SVGID_00000039841441656652184230000012521235523651499150_" gradientUnits="userSpaceOnUse" x1="66.5329" y1="23.3099" x2="202.8512" y2="23.3099">
		<stop  offset="0" style="stop-color:#802F33"/>
		<stop  offset="1" style="stop-color:#EE3E45"/>
	</linearGradient>
	<path style="fill:url(#SVGID_00000039841441656652184230000012521235523651499150_);" d="M157.19,23.02
		c1.33-0.47,2.42-1.44,2.42-4.33v-2.12c0-4.07-2.2-5.54-7.75-5.54h-21.22v24.56h21.4c5.73,0,7.89-1.47,7.89-5.33v-2.23
		C159.93,24.32,158.67,23.42,157.19,23.02z M137.41,16.47H151c1.65,0,2.3,0.44,2.3,1.59v1.15c0,1.18-0.58,1.65-2.06,1.65h-13.83
		V16.47z M153.62,28.53c0,1.15-0.64,1.59-2.16,1.59h-14.05v-4.54h14.12c1.48,0,2.09,0.47,2.09,1.83V28.53z"/>
	
		<linearGradient id="SVGID_00000162319287183464302310000016036806203634175382_" gradientUnits="userSpaceOnUse" x1="66.5821" y1="23.3099" x2="202.8326" y2="23.3099">
		<stop  offset="0" style="stop-color:#802F33"/>
		<stop  offset="1" style="stop-color:#EE3E45"/>
	</linearGradient>
	<path style="fill:url(#SVGID_00000162319287183464302310000016036806203634175382_);" d="M163.38,11.03v24.56h6.77V11.03H163.38z"
		/>
	
		<linearGradient id="SVGID_00000069387110936290219740000016815921676012684437_" gradientUnits="userSpaceOnUse" x1="66.5271" y1="23.3099" x2="202.8441" y2="23.3099">
		<stop  offset="0" style="stop-color:#802F33"/>
		<stop  offset="1" style="stop-color:#EE3E45"/>
	</linearGradient>
	<path style="fill:url(#SVGID_00000069387110936290219740000016815921676012684437_);" d="M191.73,27.46h2.16
		c6.77,0,9.84-1.37,9.84-7.17v-1.83c0-5.69-2.6-7.42-9.73-7.42h-19.71v24.56h6.74v-8.93l12.58,8.93h10.45L191.73,27.46z
		 M181.03,16.68h12.29c2.67,0,3.68,0.29,3.68,2.34v1.15c0,2.06-1.01,2.34-3.68,2.34h-12.29V16.68z"/>
	<g>
		
			<linearGradient id="SVGID_00000080183846177466170180000007756063942642214569_" gradientUnits="userSpaceOnUse" x1="14.7387" y1="30.0877" x2="68.6942" y2="30.0877">
			<stop  offset="0" style="stop-color:#802F33"/>
			<stop  offset="1" style="stop-color:#EE3E45"/>
		</linearGradient>
		<path style="fill:url(#SVGID_00000080183846177466170180000007756063942642214569_);" d="M34.51,59.34
			c-2.34,0-4.56-0.17-6.73,0.05c-2.61,0.26-4.62-0.51-6.33-2.47c-1.12-1.28-2.47-2.35-3.65-3.58c-3.46-3.57-4.15-8.83-1.24-13.1
			c1.88-2.76,4.24-5.3,6.73-7.54C34.67,22.46,46.03,12.2,56.55,1.07c0.14-0.15,0.35-0.32,0.52-0.32c3.81-0.02,7.62-0.01,11.62,0.24
			c-0.24,0.15-0.51,0.26-0.71,0.45C53.56,15.13,39.13,28.83,24.71,42.52c-1.97,1.87-2.04,3.85-0.2,5.85
			c3.17,3.45,6.33,6.9,9.5,10.36C34.15,58.89,34.27,59.05,34.51,59.34z"/>
		
			<linearGradient id="SVGID_00000167360823400210026340000014382937593742465948_" gradientUnits="userSpaceOnUse" x1="7.6361" y1="23.1837" x2="52.1069" y2="23.1837">
			<stop  offset="0" style="stop-color:#802F33"/>
			<stop  offset="1" style="stop-color:#EE3E45"/>
		</linearGradient>
		<path style="fill:url(#SVGID_00000167360823400210026340000014382937593742465948_);" d="M11.4,45.65
			c-4.02-4.34-4.86-8.76-2.33-12.86c1.56-2.52,3.48-4.91,5.61-6.98c8.56-8.32,17.27-16.48,25.93-24.7c0.21-0.2,0.52-0.39,0.79-0.39
			C44.88,0.7,48.36,0.71,52.11,1c-0.25,0.13-0.54,0.2-0.73,0.39C40.64,11.53,29.89,21.65,19.21,31.85
			c-1.85,1.76-3.51,3.76-5.05,5.79c-1.62,2.14-2.47,4.65-2.65,7.35C11.49,45.21,11.44,45.41,11.4,45.65z"/>
		
			<linearGradient id="SVGID_00000046332663197221381680000001702966318744419505_" gradientUnits="userSpaceOnUse" x1="0.4059" y1="19.1393" x2="36.5441" y2="19.1393">
			<stop  offset="0" style="stop-color:#802F33"/>
			<stop  offset="1" style="stop-color:#EE3E45"/>
		</linearGradient>
		<path style="fill:url(#SVGID_00000046332663197221381680000001702966318744419505_);" d="M36.54,0.46
			c-2.76,2.6-5.37,5.04-7.97,7.5c-5.45,5.15-10.94,10.25-16.32,15.47c-1.8,1.75-3.43,3.7-4.95,5.7c-1.88,2.47-2.99,5.3-3.01,8.68
			c-0.36-0.45-0.62-0.76-0.86-1.09c-4.08-5.67-4.18-10.5,0.46-15.68c3.65-4.08,7.9-7.62,11.92-11.37c3.16-2.95,6.37-5.85,9.56-8.77
			c0.21-0.2,0.51-0.43,0.77-0.43C29.54,0.45,32.92,0.46,36.54,0.46z"/>
		<path class="st0" d="M68.33,59.39c-4.39,0-8.65,0.01-12.92-0.02c-0.21,0-0.45-0.24-0.62-0.42c-6.52-6.9-13.03-13.8-19.51-20.72
			c-0.16-0.17-0.15-0.75,0.01-0.91c0.98-0.99,4.93-4.85,5.92-5.8c0.14-0.14,0.63-0.17,0.74-0.05c8.74,9.19,17.46,18.39,26.18,27.6
			C68.18,59.13,68.21,59.2,68.33,59.39z"/>
		<path class="st0" d="M44.77,59.49c-1.25,0-2.51-0.1-3.74,0.03c-1.29,0.13-2.11-0.38-2.94-1.31c-3.6-4.02-7.29-7.97-10.9-11.98
			c-0.2-0.22-0.26-0.9-0.09-1.08c1.63-1.69,3.32-3.32,5.02-4.94c0.07-0.07,0.43,0.04,0.55,0.17c5.84,6.21,11.66,12.42,17.49,18.64
			c0.1,0.1,0.16,0.23,0.24,0.34c-0.15,0.04-0.3,0.12-0.44,0.12C48.22,59.49,46.5,59.49,44.77,59.49z"/>
	</g>
</g>
</svg>
