<svg width="174" height="35" viewBox="0 0 174 35" fill="none" xmlns="http://www.w3.org/2000/svg">
<path d="M19.4564 0.230713C26.1277 0.230713 28.2771 2.38014 28.2771 7.75563V19.764C28.2771 20.3215 28.0195 20.5791 27.4619 20.5791H23.8283C23.2707 20.5791 23.0131 20.3215 23.0131 19.764V9.01684C23.0131 5.90228 22.3825 4.941 19.1949 4.941H9.33598C6.14836 4.941 5.29474 5.90613 5.29474 9.01684V19.764C5.29474 20.3215 5.03712 20.5791 4.47958 20.5791H0.853619C0.296075 20.5791 0 20.3177 0 19.764V7.75563C0 2.38399 2.14943 0.230713 8.82073 0.230713H19.4564Z" fill="#262626"/>
<path d="M164.571 0.230713C171.243 0.230713 173.392 2.38014 173.392 7.75563V19.764C173.392 20.3215 173.135 20.5791 172.577 20.5791H168.943C168.386 20.5791 168.128 20.3215 168.128 19.764V9.01684C168.128 5.90228 167.498 4.941 164.31 4.941H154.451C151.263 4.941 150.41 5.90613 150.41 9.01684V19.764C150.41 20.3215 150.152 20.5791 149.595 20.5791H145.961C145.403 20.5791 145.107 20.3215 145.107 19.764V7.75563C145.107 2.38399 147.257 0.230713 153.928 0.230713H164.564H164.571Z" fill="#262626"/>
<path d="M77.2178 0.0192261C83.9583 0.0192261 86.1308 2.19172 86.1308 7.62105V13.0119C86.1308 18.4412 83.9583 20.5753 77.2178 20.5753H66.6207C59.8801 20.5753 57.7076 18.4412 57.7076 13.0119V7.62105C57.7076 2.19172 59.8801 0.0192261 66.6207 0.0192261H77.2178ZM63.0639 12.0776C63.0639 15.2229 63.9252 16.1957 67.1474 16.1957H76.6949C79.9517 16.1957 80.813 15.2229 80.813 12.0776V8.52081C80.813 5.37549 79.9517 4.44113 76.6949 4.44113H67.1474C63.9252 4.44113 63.0639 5.37549 63.0639 8.52081V12.0776Z" fill="#262626"/>
<path d="M111.405 0C111.844 0 112.051 0.203792 112.051 0.645982V3.51829C112.051 3.95664 111.847 4.19119 111.405 4.19119H98.3664C95.348 4.19119 94.4674 5.07173 94.4674 8.17475V12.3352C94.4674 15.442 95.348 16.3495 98.3664 16.3495H111.405C111.844 16.3495 112.051 16.5533 112.051 16.9955V19.8678C112.051 20.3061 111.847 20.5138 111.405 20.5138H98.1895C92.2719 20.5138 89.984 18.4028 89.984 12.7774V7.7364C89.984 2.11098 92.268 0 98.1895 0L111.405 0Z" fill="#262626"/>
<path d="M132.595 0C138.544 0 140.801 2.11098 140.801 7.7364V12.7774C140.801 18.4028 138.544 20.5138 132.595 20.5138H123.54C117.622 20.5138 115.335 18.4028 115.335 12.7774V7.7364C115.335 2.11098 117.619 0 123.54 0L132.595 0ZM119.818 12.4544C119.818 15.5305 120.699 16.4379 123.717 16.4379H132.419C135.437 16.4379 136.317 15.5305 136.317 12.4544V8.05939C136.317 4.98329 135.437 4.07584 132.419 4.07584H123.717C120.699 4.07584 119.818 4.98329 119.818 8.05939V12.4544Z" fill="#262626"/>
<path d="M52.6935 0.0192261H34.6714C33.6584 0.0192261 32.8373 0.840393 32.8373 1.85335C32.8373 2.86631 33.6584 3.68748 34.6714 3.68748H52.6935C53.7065 3.68748 54.5277 2.86631 54.5277 1.85335C54.5277 0.840393 53.7065 0.0192261 52.6935 0.0192261Z" fill="#FE3B00"/>
<path d="M52.6935 16.8878H34.6714C33.6584 16.8878 32.8373 17.709 32.8373 18.7219C32.8373 19.7349 33.6584 20.5561 34.6714 20.5561H52.6935C53.7065 20.5561 54.5277 19.7349 54.5277 18.7219C54.5277 17.709 53.7065 16.8878 52.6935 16.8878Z" fill="#FE3B00"/>
<path d="M46.276 8.5708H34.6714C33.6584 8.5708 32.8373 9.39197 32.8373 10.4049C32.8373 11.4179 33.6584 12.2391 34.6714 12.2391H46.276C47.289 12.2391 48.1101 11.4179 48.1101 10.4049C48.1101 9.39197 47.289 8.5708 46.276 8.5708Z" fill="#FE3B00"/>
<path d="M41.2967 34.9962C40.2739 34.9962 39.4434 34.1656 39.4434 33.1428V29.4207C39.4434 28.3979 40.2739 27.5674 41.2967 27.5674H48.0949C48.1334 27.5674 48.1641 27.5981 48.1641 27.6366V28.7978C48.1641 28.8363 48.1334 28.867 48.0949 28.867H41.5889C41.1198 28.867 40.7392 29.2477 40.7392 29.7168V32.8506C40.7392 33.3197 41.1198 33.7004 41.5889 33.7004H46.2377C46.5838 33.7004 46.8645 33.4197 46.8645 33.0736V32.5622C46.8645 32.2161 46.5838 31.9355 46.2377 31.9355H42.5079V30.6358H46.403C47.3759 30.6358 48.1641 31.4241 48.1641 32.3969V33.239C48.1641 34.2118 47.3759 35 46.403 35H41.2967V34.9962Z" fill="#FE3B00"/>
<path d="M67.9665 34.9962C67.9203 34.9962 67.878 34.9731 67.855 34.9308L66.4861 32.5622H62.318V34.8654C62.318 34.9385 62.2603 34.9962 62.1872 34.9962H61.149C61.076 34.9962 61.0183 34.9385 61.0183 34.8654V27.5674H67.4666C68.4894 27.5674 69.3199 28.3979 69.3199 29.4207V30.7089C69.3199 31.4663 68.8624 32.1431 68.1587 32.4276L67.9549 32.5122L69.2776 34.8039C69.3123 34.8616 69.2892 34.9154 69.2776 34.9347C69.2661 34.9539 69.2315 35 69.1661 35H67.9665V34.9962ZM62.318 31.2626H67.1744C67.6435 31.2626 68.0241 30.8819 68.0241 30.4128V29.713C68.0241 29.2439 67.6435 28.8632 67.1744 28.8632H62.318V31.2626Z" fill="#FE3B00"/>
<path d="M84.2429 34.9962C83.2201 34.9962 82.3895 34.1656 82.3895 33.1428V29.4207C82.3895 28.3979 83.2201 27.5674 84.2429 27.5674H89.3607C90.3835 27.5674 91.2141 28.3979 91.2141 29.4207V33.1428C91.2141 34.1656 90.3835 34.9962 89.3607 34.9962H84.2429ZM84.5351 28.867C84.066 28.867 83.6853 29.2477 83.6853 29.7168V32.8506C83.6853 33.3197 84.066 33.7004 84.5351 33.7004H89.0685C89.5376 33.7004 89.9183 33.3197 89.9183 32.8506V29.7168C89.9183 29.2477 89.5376 28.867 89.0685 28.867H84.5351Z" fill="#FE3B00"/>
<path d="M105.926 34.9962C104.903 34.9962 104.072 34.1656 104.072 33.1428V27.6981C104.072 27.6251 104.13 27.5674 104.203 27.5674H105.241C105.314 27.5674 105.372 27.6251 105.372 27.6981V32.8506C105.372 33.3197 105.753 33.7004 106.222 33.7004H110.647C111.117 33.7004 111.497 33.3197 111.497 32.8506V27.6981C111.497 27.6251 111.555 27.5674 111.628 27.5674H112.666C112.739 27.5674 112.797 27.6251 112.797 27.6981V33.1428C112.797 34.1656 111.966 34.9962 110.944 34.9962H105.929H105.926Z" fill="#FE3B00"/>
<path d="M125.778 34.9962C125.705 34.9962 125.647 34.9385 125.647 34.8654V27.5674H132.096C133.118 27.5674 133.949 28.3979 133.949 29.4207V30.705C133.949 31.7278 133.118 32.5584 132.096 32.5584H126.947V34.8616C126.947 34.9347 126.889 34.9923 126.816 34.9923H125.778V34.9962ZM126.947 31.2626H131.803C132.272 31.2626 132.653 30.8819 132.653 30.4128V29.713C132.653 29.2439 132.272 28.8632 131.803 28.8632H126.947V31.2626Z" fill="#FE3B00"/>
<path d="M172.816 31.8585H145.504C145.185 31.8585 144.927 31.6009 144.927 31.2818C144.927 30.9626 145.185 30.705 145.504 30.705H172.816C173.135 30.705 173.392 30.9626 173.392 31.2818C173.392 31.6009 173.135 31.8585 172.816 31.8585Z" fill="#FE3B00"/>
<path d="M27.1197 31.8585H0.57677C0.257624 31.8585 0 31.6009 0 31.2818C0 30.9626 0.257624 30.705 0.57677 30.705H27.1197C27.4388 30.705 27.6965 30.9626 27.6965 31.2818C27.6965 31.6009 27.4388 31.8585 27.1197 31.8585Z" fill="#FE3B00"/>
</svg>
